<svg width="900" height="874" viewBox="0 0 900 874" fill="none" xmlns="http://www.w3.org/2000/svg">
<path fill-rule="evenodd" clip-rule="evenodd" d="M686.539 129.619C741.797 108.805 802.931 120.889 846.081 161.185H846.105C903.005 214.279 916.611 303.434 878.48 373.179L597.479 873.785H302.515L21.5139 373.179C-16.6174 303.434 -2.98719 214.279 53.8885 161.185C97.0389 120.913 158.173 108.805 213.431 129.619L254.417 145.057C400.115 193.417 293.785 0.762695 293.785 0.762695H606.185C606.185 0.762695 499.831 193.417 645.553 145.057L686.539 129.619ZM178.352 487.203C119.842 258.657 256.109 238.993 270.497 237.567L184.862 205.311C158.601 195.415 129.556 201.172 109.028 220.321C78.794 248.533 71.8005 296.393 92.3528 334.191L178.352 487.203ZM721.506 487.358L807.593 334.191H807.546C828.122 296.417 821.104 248.556 790.871 220.321C770.366 201.172 741.298 195.415 715.036 205.311L629.402 237.567C643.793 238.994 780.119 258.666 721.506 487.358ZM281.107 590.42C289.433 683.192 362.58 727.794 455.352 727.794C540.393 727.794 618.893 684.976 618.893 598.745C618.893 529.166 566.56 492.296 485.681 475.644L436.917 465.534C392.315 456.019 372.095 443.531 372.095 415.58C372.095 382.872 406.587 360.869 449.405 360.869C495.197 360.869 526.121 384.062 532.067 422.717H611.756C603.431 341.838 537.42 295.452 449.405 295.452C363.175 295.452 292.407 347.191 292.407 422.122C292.407 483.97 333.44 522.03 416.103 539.871L458.92 549.386C508.28 559.496 538.014 575.552 538.014 607.071C538.014 642.158 501.738 662.972 455.352 662.972C406.587 662.972 367.932 639.185 360.796 590.42H281.107Z" fill="white"/>
</svg>
